:FULLY-SPECIFIED
:FORCE-ALL-JOINTS-BE-3DOF
:DEGREES
510
root -3.69278 14.6381 -40.5689 -6.67049 -17.0267 -0.862882
lfemur -3.75069 2.03548 -10.5996
ltibia 58.6397 -0 0
lfoot -21.4288 29.0903 -0.155523
ltoes -25.4979 0 0
rfemur -52.3171 -17.579 10.5892
rtibia 54.5709 -0 0
rfoot -6.77306 0.530212 0.135863
rtoes 11.3518 -0 0
lowerback 17.5463 0.692363 -9.00308
upperback 0.878453 -0.672639 2.4478
thorax -8.71453 0.102273 7.97652
lowerneck 1.31415 -12.7146 -14.4579
upperneck 5.49368 -17.82 13.1082
head 3.89845 -8.91746 5.42573
lclavicle 1.78042e-14 -8.10754e-15 8.55656e-31
lhumerus -60.8532 -23.7182 100.556
lradius 101.074 -0 0
lwrist 63.7407 0 0
lhand -39.9321 37.7157 -0.978502
lfingers 7.12502 -0 0
lthumb -12.8839 66.556 -0.8147
rclavicle 1.78042e-14 -8.10754e-15 8.55656e-31
rhumerus 14.3492 10.1312 -49.0266
rradius 72.3411 -0 0
rwrist -20.3436 0 0
rhand -10.5725 -12.3419 -1.23647
rfingers 7.12502 -0 0
rthumb 15.1763 -38.9704 -0.123922
511
root -3.83311 14.6289 -40.6536 -6.7908 -19.8505 -0.490167
lfemur -3.34121 2.36327 -10.3355
ltibia 58.3492 -0 0
lfoot -21.326 28.8675 -0.150823
ltoes -25.5947 0 0
rfemur -52.3621 -17.9604 10.4213
rtibia 55.2041 -0 0
rfoot -6.64478 1.15171 0.139964
rtoes 11.3188 -0 0
lowerback 17.5584 0.790287 -9.02269
upperback 0.874553 -0.559777 2.35024
thorax -8.75169 0.155756 7.85223
lowerneck 1.15807 -12.625 -14.3929
upperneck 5.61519 -17.6798 12.9528
head 3.92306 -8.84431 5.37031
lclavicle 1.72737e-14 -7.79064e-15 8.37048e-31
lhumerus -61.5109 -23.1537 100.533
lradius 101.308 -0 0
lwrist 64.6843 0 0
lhand -40.7905 37.7675 -0.984871
lfingers 7.12502 -0 0
lthumb -13.7113 66.5992 -0.821011
rclavicle 1.72737e-14 -7.79064e-15 8.37048e-31
rhumerus 13.9525 9.74516 -49.5115
rradius 70.9944 -0 0
rwrist -19.7763 0 0
rhand -11.6836 -12.2084 -1.19105
rfingers 7.12502 -0 0
rthumb 14.1186 -39.0187 -0.106394
512
root -3.97206 14.6198 -40.7374 -6.93095 -22.6439 -0.106253
lfemur -2.9331 2.68638 -10.0722
ltibia 58.0594 -0 0
lfoot -21.2248 28.6472 -0.145753
ltoes -25.6885 0 0
rfemur -52.4067 -18.3365 10.2543
rtibia 55.8318 -0 0
rfoot -6.51762 1.7667 0.142639
rtoes 11.2838 -0 0
lowerback 17.5695 0.887298 -9.04141
upperback 0.87019 -0.447747 2.25359
thorax -8.78845 0.208737 7.72865
lowerneck 1.00367 -12.5355 -14.3281
upperneck 5.73387 -17.5396 12.7985
head 3.94682 -8.77141 5.3152
lclavicle 1.67474e-14 -7.47555e-15 8.15787e-31
lhumerus -62.1593 -22.5971 100.504
lradius 101.539 -0 0
lwrist 65.6158 0 0
lhand -41.6283 37.8228 -0.988237
lfingers 7.12502 -0 0
lthumb -14.5189 66.6457 -0.82478
rclavicle 1.67474e-14 -7.47555e-15 8.15787e-31
rhumerus 13.5667 9.36103 -49.9872
rradius 69.6562 -0 0
rwrist -19.2083 0 0
rhand -12.7831 -12.0807 -1.14316
rfingers 7.12502 -0 0
rthumb 13.0719 -39.0707 -0.0896647
513
root -4.1095 14.6108 -40.8201 -7.09205 -25.4037 0.290527
lfemur -2.52699 3.00442 -9.81029
ltibia 57.7705 -0 0
lfoot -21.1254 28.4297 -0.140338
ltoes -25.7789 0 0
rfemur -52.4512 -18.707 10.0886
rtibia 56.4534 -0 0
rfoot -6.392 2.37424 0.143917
rtoes 11.2466 -0 0
lowerback 17.5794 0.983257 -9.05919
upperback 0.865375 -0.336698 2.15797
thorax -8.82472 0.261157 7.6059
lowerneck 0.851244 -12.4463 -14.2637
upperneck 5.84949 -17.3999 12.6453
head 3.96965 -8.69889 5.2605
lclavicle 1.62261e-14 -7.16265e-15 7.91975e-31
lhumerus -62.7976 -22.0491 100.471
lradius 101.767 -0 0
lwrist 66.5339 0 0
lhand -42.444 37.8817 -0.98845
lfingers 7.12502 -0 0
lthumb -15.3051 66.6954 -0.825875
rclavicle 1.62261e-14 -7.16265e-15 7.91975e-31
rhumerus 13.1921 8.97962 -50.4531
rradius 68.3282 -0 0
rwrist -18.6402 0 0
rhand -13.8693 -11.9591 -1.09305
rfingers 7.12502 -0 0
rthumb 12.0377 -39.1261 -0.0738195
514
root -4.24529 14.6019 -40.9017 -7.27542 -28.1267 0.701963
lfemur -2.12349 3.31706 -9.55009
ltibia 57.4831 -0 0
lfoot -21.0278 28.2154 -0.134603
ltoes -25.866 0 0
rfemur -52.4957 -19.0714 9.92445
rtibia 57.0682 -0 0
rfoot -6.26835 2.97342 0.143841
rtoes 11.2072 -0 0
lowerback 17.5881 1.07803 -9.07594
upperback 0.860123 -0.226774 2.06353
thorax -8.86044 0.312942 7.48415
lowerneck 0.701062 -12.3576 -14.1998
upperneck 5.96181 -17.2608 12.4937
head 3.9915 -8.62686 5.20631
lclavicle 1.57106e-14 -6.85231e-15 7.65735e-31
lhumerus -63.4253 -21.5105 100.433
lradius 101.991 -0 0
lwrist 67.4371 0 0
lhand -43.2358 37.9441 -0.985366
lfingers 7.12502 -0 0
lthumb -16.0682 66.7484 -0.824169
rclavicle 1.57106e-14 -6.85231e-15 7.65735e-31
rhumerus 12.829 8.60173 -50.9084
rradius 67.0122 -0 0
rwrist -18.0729 0 0
rhand -14.9407 -11.8436 -1.041
rfingers 7.12502 -0 0
rthumb 11.0175 -39.1849 -0.0589344
515
root -4.3793 14.593 -40.982 -7.48257 -30.8097 1.12998
lfemur -1.72321 3.62393 -9.29205
ltibia 57.1974 -0 0
lfoot -20.9321 28.0045 -0.128577
ltoes -25.9496 0 0
rfemur -52.5402 -19.4292 9.76216
rtibia 57.6756 -0 0
rfoot -6.14711 3.56329 0.142463
rtoes 11.1654 -0 0
lowerback 17.5956 1.17147 -9.09162
upperback 0.854449 -0.118124 1.97042
thorax -8.89554 0.364023 7.36355
lowerneck 0.553394 -12.2695 -14.1365
upperneck 6.07061 -17.1226 12.3438
head 4.01232 -8.55547 5.15271
lclavicle 1.52017e-14 -6.5449e-15 7.37202e-31
lhumerus -64.0417 -20.9823 100.392
lradius 102.21 -0 0
lwrist 68.3243 0 0
lhand -44.0021 38.0102 -0.978849
lfingers 7.12502 -0 0
lthumb -16.8068 66.8047 -0.819542
rclavicle 1.52017e-14 -6.5449e-15 7.37202e-31
rhumerus 12.4776 8.2282 -51.3525
rradius 65.7102 -0 0
rwrist -17.5068 0 0
rhand -15.9958 -11.7345 -0.987265
rfingers 7.12502 -0 0
rthumb 10.0127 -39.2471 -0.045077
516
root -4.51138 14.5843 -41.0611 -7.7152 -33.4495 1.57668
lfemur -1.32679 3.9247 -9.03661
ltibia 56.9139 -0 0
lfoot -20.8385 27.7974 -0.122288
ltoes -26.0295 0 0
rfemur -52.5849 -19.78 9.60208
rtibia 58.2749 -0 0
rfoot -6.02871 4.14293 0.139849
rtoes 11.1211 -0 0
lowerback 17.6019 1.26344 -9.10614
upperback 0.848369 -0.0108944 1.87875
thorax -8.92993 0.414332 7.24425
lowerneck 0.408513 -12.1822 -14.074
upperneck 6.17565 -16.9855 12.1958
head 4.03204 -8.48482 5.09982
lclavicle 1.47003e-14 -6.2408e-15 7.06525e-31
lhumerus -64.6462 -20.4652 100.347
lradius 102.425 -0 0
lwrist 69.1939 0 0
lhand -44.7413 38.0799 -0.968768
lfingers 7.12502 -0 0
lthumb -17.5192 66.8644 -0.811879
rclavicle 1.47003e-14 -6.2408e-15 7.06525e-31
rhumerus 12.1381 7.85989 -51.7847
rradius 64.4239 -0 0
rwrist -16.9427 0 0
rhand -17.033 -11.6319 -0.93214
rfingers 7.12502 -0 0
rthumb 9.02483 -39.3125 -0.0323056
517
root -4.6414 14.5756 -41.1387 -7.97525 -36.0428 2.04432
lfemur -0.934879 4.21904 -8.78422
ltibia 56.6329 -0 0
lfoot -20.7471 27.5945 -0.115768
ltoes -26.1056 0 0
rfemur -52.63 -20.1233 9.44453
rtibia 58.8655 -0 0
rfoot -5.91357 4.71142 0.136075
rtoes 11.0741 -0 0
lowerback 17.607 1.35382 -9.11945
upperback 0.841899 0.0947689 1.78869
thorax -8.96355 0.463802 7.12642
lowerneck 0.266691 -12.0958 -14.0123
upperneck 6.27671 -16.8499 12.0501
head 4.05061 -8.41505 5.04772
lclavicle 1.4207e-14 -5.94039e-15 6.73867e-31
lhumerus -65.2382 -19.9601 100.299
lradius 102.635 -0 0
lwrist 70.0448 0 0
lhand -45.4518 38.1533 -0.955
lfingers 7.12502 -0 0
lthumb -18.2038 66.9275 -0.80107
rclavicle 1.4207e-14 -5.94039e-15 6.73867e-31
rhumerus 11.8109 7.49763 -52.2044
rradius 63.1551 -0 0
rwrist -16.3814 0 0
rhand -18.0507 -11.5361 -0.875908
rfingers 7.12502 -0 0
rthumb 8.05536 -39.3809 -0.0206692
518
root -4.76921 14.5671 -41.215 -8.26488 -38.5865 2.53537
lfemur -0.548118 4.50663 -8.53536
ltibia 56.355 -0 0
lfoot -20.658 27.3961 -0.109049
ltoes -26.1778 0 0
rfemur -52.6755 -20.4587 9.28984
rtibia 59.4467 -0 0
rfoot -5.80211 5.26782 0.131228
rtoes 11.0243 -0 0
lowerback 17.6107 1.44245 -9.13147
upperback 0.835059 0.198719 1.70036
thorax -8.99633 0.512364 7.01019
lowerneck 0.128153 -12.0105 -13.9517
upperneck 6.37358 -16.7159 11.9068
head 4.06798 -8.34628 4.99651
lclavicle 1.37228e-14 -5.64404e-15 6.39406e-31
lhumerus -65.8171 -19.4678 100.248
lradius 102.84 -0 0
lwrist 70.8754 0 0
lhand -46.1318 38.2304 -0.937429
lfingers 7.12502 -0 0
lthumb -18.8591 66.994 -0.787014
rclavicle 1.37228e-14 -5.64404e-15 6.39406e-31
rhumerus 11.4961 7.14228 -52.6108
rradius 61.9056 -0 0
rwrist -15.8234 0 0
rhand -19.0475 -11.4471 -0.818861
rfingers 7.12502 -0 0
rthumb 7.10577 -39.4524 -0.0102069
519
root -4.89468 14.5586 -41.2897 -8.58653 -41.0772 3.05252
lfemur -0.167167 4.78717 -8.29049
ltibia 56.0804 -0 0
lfoot -20.5713 27.2025 -0.102166
ltoes -26.2459 0 0
rfemur -52.7216 -20.7857 9.13835
rtibia 60.0179 -0 0
rfoot -5.69478 5.8112 0.125403
rtoes 10.9717 -0 0
lowerback 17.613 1.5292 -9.14215
upperback 0.827865 0.30081 1.61391
thorax -9.02818 0.559952 6.89572
lowerneck -0.00673487 -11.9265 -13.8921
upperneck 6.46605 -16.5837 11.7662
head 4.08409 -8.27863 4.94628
lclavicle 1.32484e-14 -5.35212e-15 6.03331e-31
lhumerus -66.3821 -18.9891 100.195
lradius 103.039 -0 0
lwrist 71.6845 0 0
lhand -46.7797 38.3114 -0.915949
lfingers 7.12502 -0 0
lthumb -19.4834 67.064 -0.769617
rclavicle 1.32484e-14 -5.35212e-15 6.03331e-31
rhumerus 11.1939 6.79472 -53.0035
rradius 60.6773 -0 0
rwrist -15.2695 0 0
rhand -20.0218 -11.3651 -0.761294
rfingers 7.12502 -0 0
rthumb 6.17752 -39.5267 -0.000948082
520
root -5.01768 14.5504 -41.3627 -8.9429 -43.5118 3.59869
lfemur 0.207311 5.06037 -8.05011
ltibia 55.8096 -0 0
lfoot -20.4871 27.014 -0.0951498
ltoes -26.3098 0 0
rfemur -52.7685 -21.1039 8.99039
rtibia 60.5783 -0 0
rfoot -5.59198 6.34064 0.118707
rtoes 10.9159 -0 0
lowerback 17.614 1.61394 -9.15141
upperback 0.820338 0.400895 1.52947
thorax -9.05904 0.6065 6.78317
lowerneck -0.137752 -11.8439 -13.8338
upperneck 6.55386 -16.4538 11.6286
head 4.09887 -8.21224 4.89714
lclavicle 1.27847e-14 -5.06501e-15 5.65845e-31
lhumerus -66.9327 -18.5248 100.14
lradius 103.232 -0 0
lwrist 72.4707 0 0
lhand -47.3938 38.3962 -0.890464
lfingers 7.12502 -0 0
lthumb -20.0752 67.1376 -0.748793
rclavicle 1.27847e-14 -5.06501e-15 5.65845e-31
rhumerus 10.9045 6.45579 -53.3817
rradius 59.4719 -0 0
rwrist -14.7203 0 0
rhand -20.972 -11.2903 -0.703504
rfingers 7.12502 -0 0
rthumb 5.2721 -39.6038 0.00708816
